<?xml version="1.0" standalone="no"?>
<!DOCTYPE svg PUBLIC "-//W3C//DTD SVG 20010904//EN"
 "http://www.w3.org/TR/2001/REC-SVG-20010904/DTD/svg10.dtd">
<svg version="1.0" xmlns="http://www.w3.org/2000/svg"
 width="1020.000000pt" height="1020.000000pt" viewBox="0 0 1020.000000 1020.000000"
 preserveAspectRatio="xMidYMid meet">
<metadata>
Created by potrace 1.11, written by Peter Selinger 2001-2013
</metadata>
<g transform="translate(0.000000,1020.000000) scale(0.100000,-0.100000)"
fill="#000000" stroke="none">
<path d="M4358 8485 c-2 -3 -45 -7 -94 -11 -134 -9 -166 -12 -204 -18 -19 -3
-57 -8 -85 -11 -49 -5 -80 -10 -140 -20 -16 -3 -43 -8 -60 -10 -16 -3 -41 -7
-55 -10 -14 -3 -41 -8 -60 -11 -131 -21 -697 -156 -725 -172 -5 -4 -15 -7 -20
-8 -12 -2 -242 -72 -265 -81 -8 -3 -19 -7 -25 -9 -84 -23 -591 -215 -643 -244
-9 -5 -35 -17 -57 -26 -119 -51 -388 -183 -505 -248 -36 -20 -73 -39 -83 -43
-9 -3 -17 -9 -17 -14 0 -5 -5 -9 -11 -9 -22 0 -331 -200 -524 -338 -103 -75
-335 -253 -359 -277 -9 -9 -16 -13 -16 -10 0 4 -8 -2 -17 -12 -10 -11 -49 -46
-88 -79 -83 -71 -134 -121 -170 -168 -25 -33 -26 -36 -9 -43 15 -6 85 14 174
50 14 6 30 11 35 13 6 1 28 10 50 20 22 10 42 18 45 19 14 5 106 46 255 115
33 16 94 44 135 63 41 19 104 48 140 65 36 16 94 42 130 57 36 15 81 35 100
43 19 9 37 16 40 17 6 2 35 14 95 40 22 9 45 18 50 19 6 2 24 9 40 15 72 30
432 162 450 165 5 1 55 17 110 35 103 33 115 37 127 40 4 1 27 8 50 17 44 15
332 98 383 110 6 1 73 18 150 37 77 20 151 38 165 40 14 3 54 12 90 20 36 9
85 18 109 22 23 3 55 11 70 16 14 6 27 10 29 9 2 -2 73 9 107 17 11 2 31 6 45
9 14 2 48 9 75 14 28 5 73 12 100 16 28 3 52 8 55 9 3 2 33 6 65 10 33 4 73 9
89 11 16 3 54 7 85 10 31 3 79 7 106 10 402 39 1632 38 2070 -2 33 -3 80 -7
105 -9 44 -4 118 -11 210 -21 83 -9 105 -12 140 -17 75 -12 136 -21 150 -23
20 -2 79 -12 110 -19 14 -3 50 -9 80 -15 30 -6 66 -12 80 -15 30 -7 106 -22
140 -29 54 -12 220 -54 470 -120 8 -2 42 -12 75 -22 33 -10 65 -19 71 -20 15
-2 300 -90 389 -119 39 -12 102 -32 140 -44 39 -12 77 -25 85 -28 16 -6 23 -8
55 -17 11 -3 90 -26 175 -51 85 -24 166 -47 180 -49 14 -3 54 -11 90 -19 116
-24 142 -18 134 31 -10 54 -77 126 -214 228 -66 48 -178 124 -185 124 -2 0
-29 16 -59 35 -30 19 -58 35 -62 35 -4 0 -15 6 -23 14 -23 19 -461 246 -476
246 -2 0 -32 13 -67 29 -120 55 -153 69 -258 111 -154 62 -355 135 -395 144
-5 1 -32 9 -60 18 -133 43 -228 69 -257 71 -10 1 -18 4 -18 7 0 4 -6 7 -12 7
-7 0 -62 13 -123 28 -60 15 -119 29 -130 31 -11 2 -31 7 -45 10 -14 3 -32 7
-40 8 -8 2 -28 6 -45 9 -16 4 -41 9 -55 12 -14 3 -36 7 -50 10 -14 2 -38 7
-55 10 -16 3 -41 7 -55 10 -14 3 -38 7 -55 10 -16 3 -41 7 -55 10 -37 7 -80
14 -125 20 -22 2 -53 7 -70 11 -16 3 -46 7 -65 9 -19 1 -55 6 -80 9 -51 8 -99
13 -180 21 -30 3 -75 8 -99 10 -24 2 -85 7 -135 11 -50 3 -111 8 -136 11 -59
6 -777 13 -782 8z"/>
<path d="M8716 6253 c-2 -2 -18 -5 -36 -8 -110 -14 -250 -94 -289 -164 l-25
-45 1 -1640 c0 -1467 3 -1735 18 -1826 36 -214 115 -381 240 -505 177 -176
437 -275 790 -300 22 -2 42 -4 45 -5 16 -4 404 0 445 5 77 11 140 42 185 94
59 66 57 63 81 133 53 154 3 327 -121 420 -64 48 -129 59 -367 63 -120 2 -236
8 -258 13 -111 24 -173 85 -201 198 -4 16 -9 374 -11 797 -2 599 0 767 10 768
7 0 190 2 407 4 217 1 403 5 413 7 60 14 122 102 147 206 11 46 9 158 -3 202
-15 56 -47 117 -77 147 -50 50 -64 52 -437 52 -192 0 -374 0 -405 1 l-57 0 0
580 c-1 632 0 619 -58 679 -33 33 -101 72 -158 90 -22 7 -47 15 -55 18 -31 12
-215 25 -224 16z"/>
<path d="M7155 5420 c-365 -87 -580 -451 -481 -815 17 -62 68 -168 92 -193 8
-7 14 -17 14 -21 0 -4 24 -31 53 -60 l52 -52 1 -1142 c1 -1254 -3 -1176 61
-1242 103 -107 273 -156 448 -130 134 20 272 100 314 184 18 34 20 41 22 59 0
4 0 518 0 1143 l0 1137 50 53 c82 87 150 227 167 339 9 67 6 193 -8 253 -14
60 -81 206 -113 245 -32 38 -110 114 -142 137 -39 28 -125 76 -125 69 0 -4 -6
-2 -12 4 -52 42 -275 60 -393 32z"/>
<path d="M4970 4899 c-42 -7 -58 -10 -117 -23 -12 -2 -31 -10 -42 -16 -12 -6
-21 -8 -21 -4 0 3 -7 1 -15 -6 -8 -7 -15 -9 -15 -6 0 9 -151 -69 -207 -106
-72 -49 -189 -165 -239 -238 -26 -38 -50 -70 -53 -70 -3 0 -6 51 -7 113 0 87
-5 121 -19 152 -34 73 -115 130 -227 160 -47 13 -217 13 -271 1 -93 -22 -187
-71 -229 -121 -46 -54 -45 -21 -44 -1425 1 -1247 2 -1327 19 -1357 25 -46 76
-103 93 -103 8 0 14 -4 14 -8 0 -8 61 -38 123 -61 55 -21 191 -28 277 -14 109
17 233 91 290 173 l25 35 1 820 c1 451 4 845 8 875 10 80 23 122 62 199 34 67
140 191 163 191 6 0 11 4 11 8 0 5 28 22 63 39 180 90 367 77 532 -37 61 -43
165 -149 165 -169 0 -5 3 -11 8 -13 23 -10 81 -156 89 -223 3 -22 6 -411 7
-865 2 -918 -3 -862 69 -927 28 -25 138 -81 171 -87 6 -1 20 -5 31 -8 91 -29
244 -23 343 12 31 12 62 22 67 23 26 8 82 42 103 64 61 65 57 3 57 963 0 804
-2 917 -20 1020 -21 119 -83 296 -142 407 -36 68 -98 168 -118 189 -5 7 -37
43 -70 81 -63 72 -178 173 -255 221 -58 37 -150 83 -150 75 0 -3 -6 -1 -12 5
-15 12 -136 48 -193 57 -60 10 -274 12 -325 4z"/>
<path d="M313 4859 c-23 -4 -51 -13 -63 -19 -11 -6 -20 -8 -20 -6 0 9 -91 -44
-136 -78 -23 -17 -52 -47 -65 -66 l-24 -35 -2 -860 c-1 -510 2 -888 8 -930 11
-81 48 -216 81 -296 30 -72 119 -229 129 -229 5 0 9 -5 9 -11 0 -17 98 -136
176 -213 179 -177 462 -337 682 -387 88 -20 107 -21 262 -24 137 -3 213 4 355
29 11 2 38 7 60 11 22 4 46 12 53 17 6 6 12 8 12 5 0 -3 26 3 57 14 32 11 65
22 74 24 15 3 129 58 225 109 18 9 37 23 44 31 7 8 19 15 26 15 8 0 14 4 14 9
0 5 15 18 32 28 81 48 248 227 343 368 58 85 147 288 159 362 2 15 5 29 6 31
4 4 17 83 26 157 8 60 6 1702 -1 1735 -18 84 -132 171 -270 207 -11 2 -67 6
-124 8 -158 5 -290 -39 -377 -123 -71 -69 -67 -15 -69 -952 -1 -781 -2 -850
-19 -905 -57 -192 -210 -357 -386 -418 -63 -22 -201 -30 -275 -16 -112 21
-250 111 -338 221 -45 57 -104 167 -112 209 -2 11 -7 30 -11 42 -5 12 -9 400
-10 862 -1 462 -4 847 -6 855 -13 48 -45 87 -124 150 -16 12 -79 39 -134 57
-52 17 -206 24 -267 12z"/>
</g>
</svg>
