<svg xmlns="http://www.w3.org/2000/svg" xmlns:xlink="http://www.w3.org/1999/xlink" width="60.079" height="40" viewBox="0 0 60.079 40">
  <defs>
    <clipPath id="clip-path">
      <path id="Path_5" data-name="Path 5" d="M29.8-109.744a45.424,45.424,0,0,0-16.37,5.678c-2.863,1.743-6.883,4.978-6.39,5.142a17.5,17.5,0,0,0,3.862-1.55,58.824,58.824,0,0,1,14.169-4.654,44.635,44.635,0,0,1,10.55-.789,49.62,49.62,0,0,1,18.283,2.933,18.025,18.025,0,0,0,4.333,1.1c.717-.717-3.432-3.367-8.249-5.27A45.809,45.809,0,0,0,29.8-109.744" transform="translate(-7 110)" fill="#fd9800" clip-rule="evenodd"/>
    </clipPath>
  </defs>
  <g id="Group_87571" data-name="Group 87571" transform="translate(-5.156 110)">
    <g id="Group_87568" data-name="Group 87568" transform="translate(5.156 -96.839)">
      <path id="Path_6" data-name="Path 6" d="M12.813-45.983a7.037,7.037,0,0,1-3.859-1.1,8.658,8.658,0,0,1-3.046-2.892A7.037,7.037,0,0,1,4.77-53.811v-9.255a1.37,1.37,0,0,1,.752-1.08,3.089,3.089,0,0,1,1.755-.5,3,3,0,0,1,1.735.5,1.371,1.371,0,0,1,.733,1.08v9.255a3.167,3.167,0,0,0,.463,1.658,4.077,4.077,0,0,0,1.234,1.292,2.969,2.969,0,0,0,1.7.521,3.022,3.022,0,0,0,1.716-.5,3.839,3.839,0,0,0,1.215-1.311,3.3,3.3,0,0,0,.463-1.658V-63.1a1.3,1.3,0,0,1,.752-1.08A3.207,3.207,0,0,1,19-64.647a3.212,3.212,0,0,1,1.812.463,1.308,1.308,0,0,1,.694,1.08v9.293a7.1,7.1,0,0,1-1.138,3.875,8.495,8.495,0,0,1-3.046,2.873A9.683,9.683,0,0,1,12.813-45.983Zm14.824-.347a2.955,2.955,0,0,1-1.774-.5,1.378,1.378,0,0,1-.694-1.08V-63.1a1.272,1.272,0,0,1,.694-1.118,3.356,3.356,0,0,1,1.774-.424,2.753,2.753,0,0,1,1.562.424,1.29,1.29,0,0,1,.636,1.118v1.157a5.653,5.653,0,0,1,1.909-2.024A5.652,5.652,0,0,1,35-64.878a5.628,5.628,0,0,1,3.316,1.06,7.655,7.655,0,0,1,2.41,2.834,8.518,8.518,0,0,1,.906,3.933v9.139a1.273,1.273,0,0,1-.771,1.176,3.676,3.676,0,0,1-1.735.4,3.668,3.668,0,0,1-1.658-.4,1.272,1.272,0,0,1-.81-1.176V-57.05a3.272,3.272,0,0,0-.443-1.658A3.881,3.881,0,0,0,35-60a2.969,2.969,0,0,0-1.7-.521,2.966,2.966,0,0,0-1.5.424,3.329,3.329,0,0,0-1.2,1.2,3.533,3.533,0,0,0-.463,1.851v9.139a1.371,1.371,0,0,1-.733,1.08A3.065,3.065,0,0,1,27.637-46.33Zm20.168,0a2.955,2.955,0,0,1-1.774-.5,1.378,1.378,0,0,1-.694-1.08V-63.1a1.272,1.272,0,0,1,.694-1.118,3.356,3.356,0,0,1,1.774-.424,3.485,3.485,0,0,1,1.774.424,1.265,1.265,0,0,1,.733,1.118v15.193a1.371,1.371,0,0,1-.733,1.08A3.065,3.065,0,0,1,47.8-46.33Zm13.381,0a8.171,8.171,0,0,1-5.3-1.5,5.786,5.786,0,0,1-1.832-4.743v-18.7a1.264,1.264,0,0,1,.81-1.118,3.535,3.535,0,0,1,1.658-.424,3.573,3.573,0,0,1,1.716.424,1.263,1.263,0,0,1,.791,1.118v6.633h4.55a1.037,1.037,0,0,1,.945.559,2.432,2.432,0,0,1,.328,1.253,2.432,2.432,0,0,1-.328,1.253,1.037,1.037,0,0,1-.945.559h-4.55v8.445A2.134,2.134,0,0,0,59.508-51a2.4,2.4,0,0,0,1.677.463h1.5a1.919,1.919,0,0,1,1.6.656,2.247,2.247,0,0,1,.521,1.427,2.3,2.3,0,0,1-.521,1.465,1.919,1.919,0,0,1-1.6.656Z" transform="translate(-4.77 72.822)" fill="#0c2869"/>
      <g id="Ellipse_386" data-name="Ellipse 386" transform="translate(40.1 5.756)" fill="#fd9800" stroke="#fff" stroke-width="2">
        <circle cx="2.91" cy="2.91" r="2.91" stroke="none"/>
        <circle cx="2.91" cy="2.91" r="3.91" fill="none"/>
      </g>
    </g>
    <g id="Group_87569" data-name="Group 87569" transform="translate(5.827 -110)" clip-path="url(#clip-path)">
      <path id="Path_4" data-name="Path 4" d="M2-115H56.957v14.719H2Z" transform="translate(-3.819 113.181)" fill="#fd9800"/>
    </g>
  </g>
</svg>
